<svg width="523" height="130" viewBox="0 0 523 130" fill="none" xmlns="http://www.w3.org/2000/svg">
<g clip-path="url(#clip0)">
<path d="M39.7633 127.716C38.7527 112.954 41.3239 98.1657 47.258 84.6122C49.2249 80.3901 51.5512 77.8695 53.4881 77.8695C53.6922 77.8694 53.8953 77.8997 54.0905 77.9594C55.2952 78.329 56.1306 79.7841 56.4434 82.0583C57.4683 89.3214 58.878 96.5249 60.6667 103.638C60.6607 103.651 60.6528 103.662 60.6434 103.672C54.7706 112.572 47.745 120.655 39.75 127.709L39.7633 127.716ZM91.9568 120.817C81.7682 113.893 73.6276 104.355 68.3877 93.203C66.8302 89.7667 65.8684 85.5446 67.8486 84.0462C68.2752 83.7331 68.794 83.5714 69.3229 83.5867C70.3265 83.6445 71.2973 83.9649 72.1384 84.5157C77.5789 87.84 83.2615 90.7507 89.138 93.223V93.243C91.405 102.243 92.3534 111.524 91.9535 120.797L91.9568 120.817ZM24.045 85.2249C15.9471 85.2922 7.87167 84.364 0 82.4612C11.6121 71.8815 25.6672 64.3508 40.9048 60.5448C42.3341 60.2222 43.7929 60.0481 45.2579 60.0254C47.9203 60.0254 49.6942 60.7946 50.21 62.1931C50.6693 63.4484 50.0702 65.0799 48.5194 66.7814C43.3456 72.5417 38.4809 78.5726 33.9459 84.8487H33.9026C30.5447 85.0984 27.2333 85.2249 24.045 85.2249ZM97.7409 82.5312C94.1218 82.5491 90.5116 82.1706 86.9748 81.4024C82.868 80.4867 80.3187 78.5654 80.4651 76.5143C80.5583 75.2823 81.6432 74.1169 83.4437 73.3111C89.1434 70.8321 94.6538 67.9386 99.9308 64.6537H99.9574C107.051 68.1751 113.486 72.8898 118.984 78.5921C112.203 81.1928 105.003 82.5279 97.7409 82.5312ZM84.8149 62.1864C84.5076 62.2023 84.2005 62.153 83.9137 62.0416C83.6269 61.9303 83.367 61.7595 83.1508 61.5404C82.7279 60.8685 82.4763 60.103 82.4183 59.3111C82.3602 58.5191 82.4975 57.7251 82.818 56.9986C84.6779 50.3722 86.2041 43.6566 87.3908 36.877H87.4207C94.4027 33.1948 101.956 30.7182 109.762 29.5515C105.921 40.8467 99.3629 51.0237 90.6655 59.1863C89.1037 60.8103 87.0446 61.8661 84.8149 62.1864ZM56.277 50.8453C55.9054 50.8439 55.5343 50.8205 55.1654 50.7753C47.7015 49.9284 40.1963 49.4971 32.6846 49.4834L32.6613 49.4501C25.297 40.9019 19.3192 31.2503 14.9462 20.8476C22.3202 22.6292 29.4779 25.2106 36.2922 28.546C43.1251 31.8147 49.4713 36.017 55.1488 41.0325C58.9394 44.4621 60.5702 47.6254 59.5318 49.4568C59.1598 49.9547 58.6628 50.3455 58.0912 50.5893C57.5196 50.8331 56.8937 50.9215 56.277 50.8453ZM73.9855 49.59C72.8905 49.59 71.6991 48.6143 70.6308 46.8462C66.7917 40.543 62.6375 34.4374 58.184 28.5526V28.5326V28.5127C59.7086 19.0026 62.8228 9.8173 67.3959 1.34192C73.6374 13.7706 77.0204 27.439 77.2968 41.3455C77.2735 46.2003 76.0821 49.3535 74.1951 49.5766C74.1255 49.5852 74.0555 49.5896 73.9855 49.59Z" fill="#146E37"/>
<path d="M60.4404 130C53.6031 129.899 46.8174 128.798 40.2991 126.73C48.2801 119.691 55.2924 111.624 61.1526 102.739L61.1759 102.706C61.5752 104.264 62.141 106.169 62.6369 107.85L62.8665 108.633C64.9798 115.782 67.7154 122.991 70.115 129.101C66.9255 129.704 63.6863 130.005 60.4404 130ZM92.3895 119.847C92.787 110.594 91.8408 101.332 89.5806 92.3503C89.5818 92.3382 89.5818 92.3259 89.5806 92.3137C90.4758 92.7 91.5308 93.1062 92.5492 93.4958C93.1682 93.7322 93.8039 93.9786 94.3896 94.2117C99.8961 96.3431 105.536 98.1127 111.273 99.5093C106.558 107.599 100.113 114.544 92.3994 119.847H92.3895ZM17.3257 111.926C9.15352 103.481 3.38661 93.0033 0.622342 81.5786C8.4755 83.4769 16.532 84.4028 24.6108 84.3356C27.7924 84.3356 31.0971 84.2091 34.4351 83.9594H34.4784C33.5432 85.2613 32.4816 86.8596 31.4466 88.4046L30.5913 89.6832C26.3979 95.9265 22.1847 103.002 17.3291 111.929L17.3257 111.926ZM119.347 77.6928C113.862 72.0195 107.446 67.3297 100.377 63.8277H100.347C101.175 63.3183 102.121 62.6956 103.033 62.0896C103.575 61.73 104.127 61.3637 104.647 61.0274C109.627 57.7408 114.406 54.1582 118.957 50.299C120.526 59.3558 120.666 68.6025 119.373 77.7028L119.347 77.6928ZM0 51.228C2.31366 39.6449 7.67682 28.89 15.5352 20.0748C19.8974 30.4543 25.8605 40.0846 33.2071 48.6141V48.6308H33.1705C31.5997 48.6308 29.706 48.7007 27.8756 48.7673H27.8124L26.3846 48.8172C17.3058 49.1602 7.98727 50.239 0 51.2246V51.228ZM87.8167 36.0676C88.0797 34.4993 88.3492 32.5414 88.5822 30.81L88.6587 30.2472C89.6338 23.1249 90.1397 15.8361 90.5424 9.02008C98.4581 14.0513 105.152 20.7869 110.135 28.7355C102.343 29.904 94.8041 32.3807 87.8367 36.061H87.8167V36.0676ZM58.6832 27.7433C57.9443 26.7743 57.0391 25.6588 56.1605 24.58C55.6314 23.914 55.0889 23.2481 54.583 22.6288C49.3381 16.0392 43.5173 9.8725 38.0094 4.18862C47.4677 0.362198 57.7738 -0.875579 67.8685 0.602482C63.3108 9.06391 60.2079 18.2321 58.6898 27.7233V27.7532L58.6832 27.7433Z" fill="#3FA110"/>
<path d="M440.079 109.495C437.683 109.668 435.279 109.297 433.047 108.41C430.815 107.524 428.811 106.144 427.186 104.374C422.6 99.0467 421.256 89.6535 423.073 75.6386C426.657 49.3669 436.295 44.0892 450.695 44.0892C456.718 44.1236 462.73 44.5887 468.687 45.481L472.218 20.0484H491.767L479.519 108.034H463.944V98.1976C456.226 105.703 448.196 109.495 440.079 109.495ZM458.16 58.5769C447.307 58.5769 444.994 59.9821 442.851 76.1114C441.753 84.3758 441.43 89.5269 443.044 91.4049C443.444 91.7927 443.925 92.0868 444.452 92.2659C444.979 92.445 445.54 92.5046 446.093 92.4405C446.243 92.4405 446.399 92.4405 446.559 92.4405C452.519 92.3206 457.208 89.1307 463.275 83.6666L466.713 58.5903L458.16 58.5769ZM384.854 109.495C373.585 109.495 365.834 106.895 361.158 101.547C356.396 96.0965 354.758 87.5824 356.166 75.522C358.965 52.0173 367.884 44.0859 391.5 44.0859C403.174 44.0859 410.772 46.3468 414.736 50.9951C416.297 53.1144 417.378 55.5484 417.904 58.1279C418.43 60.7075 418.388 63.3707 417.781 65.9324C415.881 79.1748 406.755 82.4646 392.641 83.4801L375.865 84.7654C375.788 86.0872 376.029 87.4081 376.568 88.6173C377.107 89.8265 377.929 90.8886 378.963 91.7146C381.404 92.9994 384.167 93.5444 386.914 93.2829C394.498 93.2529 402.075 92.8082 409.611 91.951L410.556 91.7046L410.662 92.7035C411.148 96.4192 411.916 100.093 412.959 103.692L413.182 104.438L412.476 104.744C403.616 107.925 394.267 109.533 384.854 109.495ZM392.119 59.0531C391.55 59.0531 390.934 59.0531 390.292 59.0697C381.01 59.0697 378.853 62.3762 377.083 72.3188L389.836 71.0801C395.523 70.6173 398.176 69.4819 398.821 63.9878C398.968 63.3509 398.988 62.6913 398.879 62.0467C398.771 61.4022 398.536 60.7854 398.189 60.2318C397.317 59.2595 395.217 59.0631 392.122 59.0631L392.119 59.0531ZM275.877 109.495C264.828 109.495 257.3 106.968 252.867 101.77C248.264 96.3762 246.837 87.9453 248.507 75.9949C250.171 63.9678 253.207 56.396 258.332 51.4413C263.523 46.4234 271.091 44.0859 282.147 44.0859C289.914 43.8901 297.668 44.8233 305.167 46.8562L303.234 60.8112C303.16 60.8112 288.564 60.5548 284.543 60.5548C274.799 60.5548 270.452 62.8523 268.745 77.0903C267.797 84.7687 268.126 88.7445 269.893 90.7689C271.314 92.4105 273.867 93.0498 278.992 93.0498C285.241 93.1216 291.488 92.7566 297.686 91.9577L298.98 91.7346L296.957 106.435L296.451 106.602C289.783 108.62 282.843 109.596 275.877 109.495ZM510.883 108.024H491.437L499.997 45.804H519.442L510.883 108.03V108.024ZM326.903 108.024H307.33L315.88 45.814H331.339V57.8178C340.388 49.4035 347.313 45.814 354.535 45.814H358.312L357.564 47.116C354.373 52.5851 351.956 58.4704 350.382 64.6038L350.235 65.2697H346.059C340.546 65.6856 335.395 68.1715 331.638 72.2289L326.899 108.03L326.903 108.024ZM234.26 108.024H214.811L223.361 45.814H242.807L234.257 108.03L234.26 108.024ZM175.201 108.024H145.152L147.542 90.9354H174.415C185.222 90.9354 187.937 89.3904 188.942 82.671C189.588 77.6098 188.48 76.6608 183.458 74.7928L167.64 68.3831C155.659 63.4284 151.252 55.8332 152.89 42.9937C155.516 23.588 166.568 19.9252 186.05 19.9252H214.671L212.278 37.0135H180.213C175.976 37.3165 173.803 38.4852 172.891 44.3156C172.122 49.4767 173.191 50.3558 178.985 52.5601L193.938 58.3539C208.311 64.0144 210.292 72.3688 208.827 83.9929C206.464 102.403 198.604 108.017 175.198 108.017L175.201 108.024ZM520.651 37.0168H501.205L503.558 19.9252H523L520.654 37.0102L520.651 37.0168ZM244.025 37.0168H224.582L226.935 19.9252H246.377L244.028 37.0102L244.025 37.0168Z" fill="#3FA110"/>
</g>
<defs>
<clipPath id="clip0">
<rect width="523" height="130" fill="white"/>
</clipPath>
</defs>
</svg>
