<svg width="320" height="79" viewBox="0 0 320 79" fill="none" xmlns="http://www.w3.org/2000/svg">
<path d="M24.3294 77.6119C23.711 68.641 25.2842 59.6545 28.915 51.4182C30.1185 48.8524 31.5418 47.3207 32.727 47.3207C32.8519 47.3206 32.9761 47.3391 33.0955 47.3753C33.8326 47.5999 34.3437 48.4842 34.5352 49.8662C35.1623 54.2799 36.0248 58.6574 37.1192 62.9803C37.1155 62.9877 37.1107 62.9945 37.1049 63.0005C33.5116 68.4093 29.213 73.3212 24.3212 77.6079L24.3294 77.6119ZM56.2642 73.4193C50.0302 69.2117 45.0494 63.4158 41.8433 56.6387C40.8904 54.5505 40.3019 51.9848 41.5135 51.0742C41.7745 50.8839 42.0919 50.7857 42.4155 50.795C43.0296 50.8301 43.6236 51.0248 44.1382 51.3595C47.467 53.3797 50.9439 55.1485 54.5395 56.6509V56.663C55.9266 62.1321 56.5069 67.7723 56.2622 73.4072L56.2642 73.4193ZM14.7121 51.7905C9.75734 51.8314 4.81632 51.2674 0 50.111C7.10489 43.6818 15.7046 39.1055 25.0278 36.7926C25.9023 36.5965 26.7949 36.4908 27.6912 36.477C29.3203 36.477 30.4056 36.9444 30.7212 37.7942C31.0022 38.5571 30.6357 39.5486 29.6868 40.5826C26.5212 44.083 23.5447 47.7479 20.77 51.5619H20.7435C18.6889 51.7136 16.6628 51.7905 14.7121 51.7905ZM59.8032 50.1535C57.5889 50.1644 55.3799 49.9344 53.2159 49.4676C50.7032 48.9111 49.1434 47.7436 49.233 46.4971C49.29 45.7485 49.9538 45.0402 51.0554 44.5506C54.5428 43.0441 57.9144 41.2857 61.1431 39.2896H61.1594C65.4995 41.4295 69.4372 44.2946 72.8008 47.7598C68.6519 49.3402 64.2466 50.1515 59.8032 50.1535ZM51.8944 37.7902C51.7064 37.7998 51.5185 37.7699 51.343 37.7022C51.1675 37.6345 51.0085 37.5307 50.8762 37.3976C50.6174 36.9893 50.4635 36.5241 50.428 36.0429C50.3925 35.5616 50.4765 35.0791 50.6726 34.6376C51.8106 30.6108 52.7444 26.5297 53.4704 22.4098H53.4888C57.7607 20.1722 62.3822 18.6672 67.1583 17.9582C64.8081 24.8222 60.7956 31.0067 55.4741 35.967C54.5185 36.9539 53.2586 37.5956 51.8944 37.7902ZM34.4333 30.8983C34.206 30.8974 33.9789 30.8832 33.7532 30.8558C29.1864 30.3411 24.5943 30.079 19.9982 30.0707L19.984 30.0504C15.4781 24.8558 11.8205 18.9906 9.14489 12.6689C13.6567 13.7516 18.0362 15.3203 22.2055 17.3471C26.3863 19.3335 30.2692 21.8873 33.743 24.9351C36.0624 27.0193 37.0601 28.9416 36.4248 30.0545C36.1972 30.3571 35.8931 30.5945 35.5434 30.7427C35.1936 30.8909 34.8107 30.9446 34.4333 30.8983ZM45.2683 30.1354C44.5984 30.1354 43.8694 29.5425 43.2158 28.4681C40.8668 24.6377 38.325 20.9273 35.6001 17.3512V17.3391V17.3269C36.533 11.5477 38.4384 5.96588 41.2365 0.81546C45.0554 8.36826 47.1253 16.6744 47.2944 25.1253C47.2802 28.0755 46.5512 29.9918 45.3966 30.1273C45.3541 30.1325 45.3112 30.1352 45.2683 30.1354Z" fill="#146E37"/>
<path d="M36.9807 78.9995C32.7973 78.9385 28.6454 78.269 24.6572 77.0125C29.5404 72.7349 33.8309 67.8324 37.4165 62.4334L37.4307 62.4132C37.6751 63.3602 38.0213 64.5176 38.3247 65.5394L38.4652 66.015C39.7582 70.3593 41.432 74.7401 42.9002 78.4532C40.9487 78.8196 38.9668 79.0025 36.9807 78.9995ZM56.5289 72.83C56.7722 67.2068 56.1933 61.5783 54.8103 56.1202C54.811 56.1128 54.811 56.1054 54.8103 56.098C55.3581 56.3327 56.0036 56.5796 56.6267 56.8163C57.0054 56.96 57.3943 57.1097 57.7527 57.2513C61.1219 58.5466 64.5726 59.622 68.0827 60.4707C65.1983 65.3866 61.2548 69.6073 56.535 72.83H56.5289ZM10.6008 68.0162C5.60063 62.8841 2.07211 56.517 0.380783 49.5743C5.18578 50.7279 10.1152 51.2906 15.0582 51.2498C17.0049 51.2498 19.0269 51.1729 21.0693 51.0211H21.0958C20.5236 51.8123 19.874 52.7835 19.2407 53.7224L18.7174 54.4994C16.1517 58.2934 13.5738 62.5933 10.6029 68.0182L10.6008 68.0162ZM73.0227 47.2129C69.6673 43.7653 65.7414 40.9154 61.416 38.7873H61.3977C61.9047 38.4777 62.483 38.0993 63.0409 37.731C63.3728 37.5125 63.7109 37.2899 64.0285 37.0855C67.0757 35.0883 69.9996 32.9112 72.7845 30.5659C73.7442 36.0697 73.8301 41.6889 73.039 47.219L73.0227 47.2129ZM0 31.1305C1.41563 24.0915 4.6971 17.5559 9.50531 12.199C12.1743 18.5065 15.8229 24.3587 20.3179 29.5421V29.5522H20.2955C19.3344 29.5522 18.1758 29.5947 17.0558 29.6351H17.0171L16.1436 29.6655C10.5886 29.8739 4.88705 30.5295 0 31.1285V31.1305ZM53.7311 21.9177C53.892 20.9646 54.0569 19.7748 54.1994 18.7226L54.2463 18.3806C54.8429 14.0525 55.1524 9.6231 55.3988 5.48107C60.2421 8.53849 64.3375 12.6317 67.3863 17.462C62.6189 18.1721 58.0064 19.6771 53.7433 21.9136H53.7311V21.9177ZM35.9056 16.859C35.4535 16.2702 34.8997 15.5923 34.3621 14.9367C34.0383 14.532 33.7064 14.1273 33.3969 13.751C30.1877 9.74653 26.6263 5.99908 23.2563 2.54503C29.0434 0.219741 35.3492 -0.532447 41.5257 0.365759C38.737 5.5077 36.8385 11.0791 35.9096 16.8469V16.8651L35.9056 16.859Z" fill="#3FA110"/>
<path d="M269.264 66.5395C267.798 66.6444 266.328 66.4191 264.962 65.8802C263.596 65.3413 262.37 64.5029 261.376 63.4274C258.57 60.1899 257.747 54.4817 258.859 45.965C261.052 29.9998 266.949 26.7927 275.76 26.7927C279.445 26.8135 283.124 27.0962 286.768 27.6385L288.929 12.1833H300.89L293.396 65.6512H283.866V59.6739C279.144 64.2348 274.231 66.5395 269.264 66.5395ZM280.327 35.5967C273.687 35.5967 272.272 36.4506 270.96 46.2523C270.289 51.2745 270.091 54.4048 271.079 55.5461C271.323 55.7817 271.617 55.9604 271.94 56.0693C272.263 56.1781 272.605 56.2143 272.944 56.1754C273.036 56.1754 273.131 56.1754 273.229 56.1754C276.876 56.1025 279.745 54.164 283.457 50.8435L285.561 35.6048L280.327 35.5967ZM235.474 66.5395C228.58 66.5395 223.837 64.9592 220.976 61.7095C218.062 58.3971 217.06 53.2231 217.922 45.8941C219.634 31.6105 225.091 26.7906 239.541 26.7906C246.684 26.7906 251.333 28.1646 253.758 30.9893C254.713 32.2772 255.375 33.7563 255.696 35.3239C256.018 36.8915 255.993 38.5098 255.621 40.0666C254.459 48.1139 248.875 50.1131 240.239 50.7302L229.974 51.5113C229.928 52.3145 230.075 53.1172 230.405 53.852C230.735 54.5868 231.237 55.2323 231.87 55.7342C233.364 56.515 235.055 56.8462 236.735 56.6873C241.375 56.669 246.011 56.3988 250.622 55.8779L251.201 55.7282L251.266 56.3352C251.563 58.5932 252.033 60.8254 252.671 63.0126L252.807 63.4659L252.375 63.652C246.954 65.5854 241.234 66.5626 235.474 66.5395ZM239.92 35.8861C239.571 35.8861 239.195 35.8861 238.802 35.8962C233.122 35.8962 231.803 37.9055 230.72 43.9476L238.523 43.1948C242.003 42.9136 243.626 42.2236 244.021 38.8849C244.111 38.4978 244.123 38.097 244.056 37.7053C243.99 37.3136 243.846 36.9388 243.634 36.6024C243.1 36.0116 241.815 35.8922 239.922 35.8922L239.92 35.8861ZM168.797 66.5395C162.036 66.5395 157.43 65.0037 154.718 61.8451C151.902 58.5671 151.028 53.4437 152.05 46.1815C153.069 38.8727 154.926 34.2714 158.061 31.2605C161.238 28.2111 165.869 26.7906 172.633 26.7906C177.385 26.6717 182.13 27.2387 186.718 28.4742L185.535 36.9545C185.49 36.9545 176.559 36.7987 174.099 36.7987C168.137 36.7987 165.478 38.1949 164.433 46.8472C163.853 51.5133 164.054 53.9293 165.135 55.1596C166.005 56.1571 167.567 56.5456 170.703 56.5456C174.526 56.5892 178.348 56.3675 182.14 55.8819L182.932 55.7464L181.694 64.68L181.385 64.7811C177.305 66.0077 173.059 66.6008 168.797 66.5395ZM312.586 65.6452H300.688L305.925 27.8347H317.823L312.586 65.6492V65.6452ZM200.017 65.6452H188.041L193.273 27.8408H202.731V35.1354C208.268 30.0221 212.505 27.8408 216.924 27.8408H219.235L218.777 28.632C216.825 31.9556 215.346 35.532 214.383 39.2592L214.293 39.6639H211.738C208.365 39.9166 205.213 41.4273 202.914 43.8929L200.015 65.6492L200.017 65.6452ZM143.333 65.6452H131.433L136.664 27.8408H148.562L143.331 65.6492L143.333 65.6452ZM107.197 65.6452H88.812L90.274 55.2607H106.717C113.329 55.2607 114.99 54.3219 115.605 50.2385C116 47.1628 115.322 46.5862 112.249 45.451L102.571 41.5558C95.2405 38.5449 92.5444 33.9294 93.5463 26.1269C95.1529 14.3342 101.915 12.1084 113.836 12.1084H131.348L129.884 22.4928H110.264C107.672 22.6769 106.342 23.3872 105.784 26.9303C105.314 30.0666 105.968 30.6008 109.513 31.9403L118.662 35.4612C127.456 38.9011 128.668 43.9779 127.772 51.0418C126.326 62.2295 121.517 65.6411 107.195 65.6411L107.197 65.6452ZM318.562 22.4948H306.664L308.104 12.1084H320L318.564 22.4908L318.562 22.4948ZM149.308 22.4948H137.412L138.851 12.1084H150.747L149.31 22.4908L149.308 22.4948Z" fill="#3FA110"/>
</svg>
